<!-- <?xml version="1.0" encoding="utf-8"?><svg version="1.1" id="Layer_1" xmlns="http://www.w3.org/2000/svg" xmlns:xlink="http://www.w3.org/1999/xlink" x="0px" y="0px" viewBox="0 0 122.9 85.6" style="enable-background:new 0 0 122.9 85.6" xml:space="preserve"><style type="text/css">.st0{fill-rule:evenodd;clip-rule:evenodd;}</style><g><path class="st0" d="M7.5,0h107.9c4.1,0,7.5,3.4,7.5,7.5v70.6c0,4.1-3.4,7.5-7.5,7.5H7.5c-4.1,0-7.5-3.4-7.5-7.5V7.5 C0,3.4,3.4,0,7.5,0L7.5,0z M69.9,63.3h28.5v4H69.9V63.3L69.9,63.3z M69.9,53.1H109v4H69.9V53.1L69.9,53.1z M92.1,35h5.6 c0.3,0,0.5,0.2,0.5,0.5v11c0,0.3-0.2,0.5-0.5,0.5h-5.6c-0.3,0-0.5-0.2-0.5-0.5v-11C91.6,35.3,91.8,35,92.1,35L92.1,35L92.1,35z M70.5,28.3h5.6c0.3,0,0.5,0.2,0.5,0.5v17.8c0,0.3-0.2,0.5-0.5,0.5h-5.6c-0.3,0-0.5-0.2-0.5-0.5V28.8 C69.9,28.5,70.2,28.3,70.5,28.3L70.5,28.3L70.5,28.3L70.5,28.3z M81.3,24.5h5.6c0.3,0,0.5,0.2,0.5,0.5v21.6c0,0.3-0.2,0.5-0.5,0.5 h-5.6c-0.3,0-0.5-0.2-0.5-0.5V25C80.8,24.7,81,24.5,81.3,24.5L81.3,24.5L81.3,24.5z M39.3,48.2l17,0.3c0,6.1-3,11.7-8,15.1 L39.3,48.2L39.3,48.2L39.3,48.2z M37.6,45.3l-0.2-19.8l0-1.3l1.3,0.1h0h0c1.6,0.1,3.2,0.4,4.7,0.8c1.5,0.4,2.9,1,4.3,1.7 c6.9,3.6,11.7,10.8,12.1,19l0.1,1.3l-1.3,0l-19.7-0.6l-1.1,0L37.6,45.3L37.6,45.3L37.6,45.3z M39.8,26.7L40,44.1l17.3,0.5 c-0.7-6.8-4.9-12.7-10.7-15.8c-1.2-0.6-2.5-1.1-3.8-1.5C41.7,27.1,40.8,26.9,39.8,26.7L39.8,26.7L39.8,26.7z M35.9,47.2L45.6,64 c-3,1.7-6.3,2.6-9.7,2.6c-10.7,0-19.4-8.7-19.4-19.4c0-10.4,8.2-19,18.6-19.4L35.9,47.2L35.9,47.2L35.9,47.2z M115.6,14.1H7.2v64.4 h108.4V14.1L115.6,14.1L115.6,14.1z"/></g></svg> -->
<svg xmlns="http://www.w3.org/2000/svg" width="24" height="24" viewBox="0 0 24 24"><g fill="none" fill-rule="evenodd" stroke="#000000" stroke-linecap="round" stroke-linejoin="round" stroke-width="1.5" transform="translate(2 2)"><path d="M19.5240276,7.75286045 C18.8849362,3.81946192 15.5439551,0.893223318 11.5606408,0.778032041 C11.3712496,0.770607471 11.1866786,0.838795252 11.0476041,0.967567972 C10.9085296,1.09634069 10.8263664,1.27512895 10.819222,1.4645309 L10.819222,1.4645309 L10.819222,1.52860413 L11.2677346,8.23798631 C11.2971553,8.68963908 11.6854431,9.03296725 12.1372998,9.00686503 L18.8649887,8.55835245 C19.0545568,8.54433433 19.2307086,8.45529979 19.3544148,8.31097595 C19.4781209,8.16665211 19.5391671,7.97895558 19.5240276,7.78947372 L19.5240276,7.75286045 Z"/><path d="M6.90160187,4.76887874 C7.32955892,4.6698867 7.76749954,4.88885701 7.94508013,5.29061788 C7.99159691,5.38511243 8.01956182,5.48765047 8.02745999,5.59267737 C8.11899318,6.89244855 8.31121286,9.73913048 8.42105267,11.2768879 C8.43980624,11.5538919 8.56817808,11.8120016 8.77775927,11.9940967 C8.98734046,12.1761918 9.2608492,12.2672571 9.53775748,12.2471396 L9.53775748,12.2471396 L15.1853548,11.8993136 C15.4374833,11.8841581 15.6846679,11.9738616 15.8683955,12.1471897 C16.0521232,12.3205177 16.1560616,12.5620622 16.155608,12.8146454 L16.155608,12.8146454 C15.9267391,16.2250189 13.4765028,19.076053 10.1393049,19.8150645 C6.80210698,20.5540759 3.37727198,19.004057 1.72997713,16.0091534 C1.23822668,15.1471838 0.92681194,14.1942547 0.814645313,13.2082381 C0.766693752,12.9056309 0.748300453,12.5990759 0.759725404,12.2929062 C0.769439164,8.6509094 3.32723354,5.51283929 6.89244855,4.76887874"/></g></svg>